<svg width="349" height="273" viewBox="0 0 349 273" fill="none" xmlns="http://www.w3.org/2000/svg">
<path d="M65.308 203.206C65.308 203.206 80.7083 247.574 148.215 253.646L142.663 250.496L180.952 249.796L177.853 251.697L185.353 250.297C197.186 246.907 208.238 241.696 218.2 234.992L213.13 229.922C196.349 240.898 176.354 247.407 154.803 247.723C145.406 247.86 136.413 246.444 127.68 244.35C133.811 245.253 139.981 246.048 146.376 245.954C169.744 245.612 191.411 238.403 209.491 226.284L204.417 221.21C187.675 232.113 167.747 238.571 146.274 238.885C130.986 239.109 116.404 236.157 103.107 230.705C113.738 233.713 124.753 235.784 136.361 235.614C159.644 235.274 181.24 228.116 199.281 216.073L194.195 210.987C177.494 221.81 157.644 228.221 136.259 228.533C109.214 228.929 84.6465 219.144 65.308 203.206Z" fill="white"/>
<path d="M108.205 20.1708C108.182 20.1724 108.16 20.173 108.137 20.1745L86.4322 23.8911C36.8362 37.3158 0.305603 82.6595 0.305603 136.48C0.305603 138.469 0.358504 140.444 0.458662 142.407C3.67024 191.947 39.2706 222.255 39.2706 222.255C26.3422 204.27 25.6335 179.8 25.6335 155.939C25.6335 95.3843 74.6473 46.3705 135.202 46.3705C162.25 46.3705 187.401 57.5393 206.504 73.7581C206.504 73.7581 188.831 21.4767 108.204 20.1706L108.205 20.1708ZM116.941 26.9154C126.338 26.9154 135.912 28.2754 144.614 30.4962C138.496 29.5038 131.736 28.8049 125.34 28.8049C60.965 28.8049 8.70654 81.0634 8.70654 145.439C8.70654 150.629 9.56989 155.582 10.2284 160.594C8.4795 152.817 7.37642 144.789 7.37642 136.48C7.37642 75.9253 56.3863 26.9154 116.941 26.9154ZM125.34 35.8742C140.63 35.8742 155.167 39.0379 168.382 44.6845C157.797 41.5209 146.812 39.2896 135.203 39.2896C70.8277 39.2896 18.5691 91.5637 18.5691 155.939C18.1354 163.628 19.4434 169.321 20.5643 175.809C17.7545 166.106 15.7759 156.053 15.7759 145.439C15.7759 84.8842 64.7857 35.8742 125.34 35.8742Z" fill="white"/>
<path d="M151.228 133.24C146.62 133.24 142.641 132.237 139.292 130.232C135.964 128.227 133.393 125.421 131.58 121.816C129.788 118.21 128.892 114.019 128.892 109.24C128.892 104.461 129.788 100.269 131.58 96.6639C133.393 93.0586 135.964 90.2532 139.292 88.2478C142.641 86.2425 146.62 85.24 151.228 85.24C156.518 85.24 160.956 86.5519 164.54 89.1759C168.145 91.7999 170.684 95.3519 172.156 99.8319L163.388 102.264C162.534 99.4693 161.094 97.3039 159.068 95.7679C157.041 94.2106 154.428 93.4318 151.228 93.4318C148.305 93.4318 145.862 94.0825 143.9 95.3838C141.958 96.6852 140.497 98.52 139.516 100.888C138.534 103.256 138.044 106.04 138.044 109.24C138.044 112.44 138.534 115.224 139.516 117.592C140.497 119.96 141.958 121.795 143.9 123.096C145.862 124.397 148.305 125.048 151.228 125.048C154.428 125.048 157.041 124.269 159.068 122.712C161.094 121.154 162.534 118.989 163.388 116.216L172.156 118.648C170.684 123.128 168.145 126.68 164.54 129.304C160.956 131.928 156.518 133.24 151.228 133.24Z" fill="white"/>
<path d="M177.166 132.28V85.24H185.87V132.28H177.166Z" fill="white"/>
<path d="M205.664 133.304C202.954 133.304 200.746 132.845 199.04 131.928C197.333 131.011 196 129.848 195.04 128.44C194.101 127.032 193.429 125.57 193.024 124.056C192.618 122.52 192.373 121.122 192.288 119.864C192.202 118.605 192.16 117.688 192.16 117.112V97.7199H200.992V114.04C200.992 114.829 201.034 115.843 201.12 117.08C201.205 118.296 201.472 119.522 201.92 120.76C202.368 121.997 203.093 123.032 204.096 123.864C205.12 124.696 206.56 125.112 208.416 125.112C209.162 125.112 209.962 124.995 210.816 124.76C211.669 124.525 212.469 124.077 213.216 123.416C213.962 122.733 214.57 121.741 215.04 120.44C215.53 119.117 215.776 117.389 215.776 115.256L220.768 117.624C220.768 120.355 220.213 122.915 219.104 125.304C217.994 127.693 216.32 129.624 214.08 131.096C211.861 132.568 209.056 133.304 205.664 133.304ZM216.864 132.28V120.824H215.776V97.7199H224.544V132.28H216.864Z" fill="white"/>
<path d="M247.794 133.24C244.359 133.24 241.49 132.44 239.186 130.84C236.882 129.24 235.143 127.064 233.97 124.312C232.818 121.56 232.242 118.456 232.242 115C232.242 111.544 232.818 108.44 233.97 105.688C235.122 102.936 236.818 100.76 239.058 99.1597C241.298 97.5597 244.061 96.7597 247.346 96.7597C250.653 96.7597 253.533 97.549 255.986 99.1277C258.439 100.706 260.338 102.872 261.682 105.624C263.047 108.354 263.73 111.48 263.73 115C263.73 118.456 263.058 121.56 261.714 124.312C260.391 127.064 258.535 129.24 256.146 130.84C253.756 132.44 250.972 133.24 247.794 133.24ZM230.77 132.28V86.1997H239.538V108.6H238.45V132.28H230.77ZM246.386 125.496C248.263 125.496 249.799 125.026 250.994 124.088C252.189 123.149 253.074 121.89 253.65 120.312C254.226 118.712 254.514 116.941 254.514 115C254.514 113.08 254.215 111.33 253.618 109.752C253.021 108.152 252.093 106.882 250.834 105.944C249.597 104.984 248.007 104.504 246.066 104.504C244.252 104.504 242.781 104.941 241.65 105.816C240.541 106.69 239.73 107.917 239.218 109.496C238.706 111.074 238.45 112.909 238.45 115C238.45 117.09 238.706 118.925 239.218 120.504C239.73 122.082 240.562 123.309 241.714 124.184C242.887 125.058 244.445 125.496 246.386 125.496Z" fill="white"/>
<path d="M280.644 133.24C276.292 133.24 272.772 132.258 270.084 130.296C267.417 128.312 265.796 125.517 265.22 121.912L274.116 120.568C274.478 122.189 275.278 123.458 276.516 124.376C277.774 125.293 279.364 125.752 281.284 125.752C282.862 125.752 284.078 125.453 284.932 124.856C285.785 124.237 286.212 123.384 286.212 122.296C286.212 121.613 286.041 121.069 285.7 120.664C285.358 120.237 284.59 119.821 283.396 119.416C282.222 119.01 280.388 118.477 277.892 117.816C275.076 117.09 272.825 116.28 271.14 115.384C269.454 114.488 268.238 113.421 267.492 112.184C266.745 110.925 266.372 109.41 266.372 107.64C266.372 105.421 266.937 103.501 268.068 101.88C269.198 100.237 270.788 98.9784 272.836 98.1037C274.905 97.2077 277.337 96.7597 280.132 96.7597C282.841 96.7597 285.241 97.1757 287.332 98.0077C289.422 98.8397 291.108 100.024 292.388 101.56C293.689 103.096 294.489 104.909 294.788 107L285.892 108.6C285.742 107.32 285.188 106.306 284.228 105.56C283.268 104.813 281.966 104.376 280.324 104.248C278.724 104.141 277.433 104.354 276.452 104.888C275.492 105.421 275.012 106.189 275.012 107.192C275.012 107.789 275.214 108.29 275.62 108.696C276.046 109.101 276.91 109.517 278.212 109.944C279.534 110.37 281.54 110.925 284.228 111.608C286.852 112.29 288.953 113.09 290.532 114.008C292.132 114.904 293.294 115.992 294.02 117.272C294.745 118.53 295.108 120.056 295.108 121.848C295.108 125.389 293.828 128.173 291.268 130.2C288.708 132.226 285.166 133.24 280.644 133.24Z" fill="white"/>
<path d="M151.228 195.295C146.62 195.295 142.641 194.293 139.292 192.288C135.964 190.282 133.393 187.477 131.58 183.872C129.788 180.266 128.892 176.074 128.892 171.296C128.892 166.517 129.788 162.325 131.58 158.72C133.393 155.114 135.964 152.309 139.292 150.304C142.641 148.298 146.62 147.296 151.228 147.296C156.518 147.296 160.956 148.608 164.54 151.232C168.145 153.856 170.684 157.408 172.156 161.888L163.388 164.32C162.534 161.525 161.094 159.36 159.068 157.824C157.041 156.266 154.428 155.487 151.228 155.487C148.305 155.487 145.862 156.138 143.9 157.439C141.958 158.741 140.497 160.576 139.516 162.944C138.534 165.312 138.044 168.096 138.044 171.296C138.044 174.496 138.534 177.279 139.516 179.647C140.497 182.015 141.958 183.85 143.9 185.152C145.862 186.453 148.305 187.104 151.228 187.104C154.428 187.104 157.041 186.325 159.068 184.767C161.094 183.21 162.534 181.045 163.388 178.272L172.156 180.704C170.684 185.184 168.145 188.736 164.54 191.36C160.956 193.984 156.518 195.295 151.228 195.295Z" fill="white"/>
<path d="M192.078 195.295C188.6 195.295 185.55 194.517 182.926 192.959C180.302 191.402 178.254 189.258 176.782 186.527C175.331 183.775 174.606 180.618 174.606 177.055C174.606 173.45 175.352 170.282 176.846 167.551C178.339 164.799 180.398 162.655 183.022 161.119C185.646 159.583 188.664 158.815 192.078 158.815C195.555 158.815 198.606 159.594 201.23 161.152C203.875 162.709 205.934 164.864 207.406 167.616C208.878 170.346 209.614 173.493 209.614 177.055C209.614 180.639 208.867 183.807 207.374 186.559C205.902 189.29 203.843 191.434 201.198 192.991C198.574 194.527 195.534 195.295 192.078 195.295ZM192.078 187.167C194.872 187.167 196.952 186.229 198.318 184.351C199.704 182.453 200.398 180.021 200.398 177.055C200.398 173.983 199.694 171.53 198.286 169.695C196.899 167.861 194.83 166.944 192.078 166.944C190.179 166.944 188.622 167.37 187.406 168.223C186.19 169.077 185.283 170.261 184.686 171.775C184.11 173.29 183.822 175.05 183.822 177.055C183.822 180.149 184.515 182.613 185.902 184.447C187.31 186.261 189.368 187.167 192.078 187.167Z" fill="white"/>
<path d="M226.848 195.36C224.139 195.36 221.931 194.901 220.224 193.984C218.517 193.066 217.184 191.904 216.224 190.496C215.285 189.088 214.613 187.626 214.208 186.111C213.803 184.575 213.557 183.178 213.472 181.919C213.386 180.661 213.344 179.744 213.344 179.168V159.776H222.176V176.096C222.176 176.885 222.218 177.898 222.304 179.136C222.389 180.352 222.656 181.578 223.104 182.815C223.552 184.053 224.277 185.087 225.28 185.919C226.304 186.751 227.744 187.167 229.6 187.167C230.347 187.167 231.147 187.05 232 186.816C232.853 186.581 233.653 186.133 234.4 185.472C235.147 184.789 235.755 183.797 236.224 182.496C236.715 181.173 236.96 179.445 236.96 177.312L241.952 179.68C241.952 182.41 241.397 184.97 240.288 187.36C239.179 189.749 237.504 191.68 235.264 193.152C233.045 194.624 230.24 195.36 226.848 195.36ZM238.048 194.336V182.88H236.96V159.776H245.728V194.336H238.048Z" fill="white"/>
<path d="M275.57 194.335V178.015C275.57 177.226 275.527 176.223 275.442 175.007C275.356 173.77 275.09 172.533 274.642 171.295C274.194 170.058 273.458 169.023 272.434 168.191C271.431 167.359 270.002 166.943 268.146 166.943C267.399 166.943 266.599 167.061 265.746 167.295C264.892 167.53 264.092 167.989 263.346 168.671C262.599 169.333 261.98 170.314 261.49 171.615C261.02 172.917 260.786 174.645 260.786 176.799L255.794 174.431C255.794 171.701 256.348 169.141 257.458 166.751C258.567 164.362 260.231 162.431 262.45 160.959C264.69 159.487 267.506 158.751 270.898 158.751C273.607 158.751 275.815 159.21 277.522 160.127C279.228 161.045 280.551 162.207 281.49 163.615C282.45 165.023 283.132 166.495 283.538 168.031C283.943 169.546 284.188 170.933 284.274 172.191C284.359 173.45 284.402 174.367 284.402 174.943V194.335L275.57 194.335ZM251.954 194.335V159.775H259.698V171.231H260.786V194.335H251.954Z" fill="white"/>
<path d="M70.4251 67.5355C70.4251 67.5355 20.9107 83.827 18.9329 162.989C18.9933 163.975 19.0753 165.205 19.191 166.478L22.6103 186.446C36.035 236.042 81.3787 272.573 135.199 272.573C137.188 272.573 139.163 272.521 141.126 272.42C190.666 269.209 218.2 234.992 218.2 234.992C200.215 247.921 178.52 247.245 154.658 247.245C94.1035 247.245 45.0896 198.231 45.0896 137.677C45.0896 110.629 54.2061 86.6389 70.4249 67.5355L70.4251 67.5355ZM43.4036 104.498C40.24 115.083 38.0086 126.068 38.0087 137.677C38.0087 202.052 90.2829 254.311 154.658 254.311C161.464 254.311 168.04 253.436 174.528 252.316C164.825 255.125 154.772 257.104 144.158 257.104C83.6033 257.104 34.5934 208.094 34.5934 147.54C34.5934 132.249 37.757 117.713 43.4036 104.498ZM29.4019 128.867C28.4095 134.984 27.5241 141.144 27.5241 147.54C27.5241 211.915 79.7826 264.173 144.158 264.173C149.348 264.173 154.302 263.31 159.314 262.651C151.536 264.4 143.508 265.503 135.199 265.503C74.6444 265.503 25.6345 216.493 25.6345 155.939C25.6345 146.541 27.1811 137.568 29.4019 128.867Z" fill="white"/>
<path d="M144.142 0.0465012C72.1 0.592564 40.7473 48.2054 40.7473 48.2054C60.0859 32.2678 90.4471 25.4439 117.493 25.8395C154.604 26.3825 187.105 45.2751 206.506 73.7598L211.557 68.7052C190.805 38.994 156.563 19.3286 117.594 18.7585C105.987 18.5886 94.9715 20.6598 84.3408 23.6682C97.637 18.2156 112.219 15.2642 127.508 15.4879C164.707 16.0321 197.271 35.0114 216.654 63.6077L221.713 58.5531C200.975 28.7347 166.666 8.98995 127.609 8.41856C121.214 8.32498 115.04 9.11975 108.909 10.0226C117.642 7.92922 126.64 6.51278 136.036 6.65026C173.315 7.19564 205.94 26.2593 225.308 54.9578L230.367 49.8994C215.23 28.0521 192.815 11.5902 166.583 4.07605L145.836 0.210813L144.142 0.0465012Z" fill="white"/>
<path d="M165.194 7.87109L170.971 5.61605C170.971 5.61605 161.539 1.61066 144.642 0.171124C127.745 -1.26842 98.3068 8.51884 98.3068 8.51884L135.183 5.21562L165.194 7.87109Z" fill="white"/>
<path d="M22.6104 186.446C22.6104 186.446 19.6567 172.418 19.1911 166.478C18.6665 159.788 21.2616 156.753 21.2616 156.753L25.8828 179.685L22.6104 186.446Z" fill="white"/>
<path d="M304.644 195.295C301.06 195.295 297.988 194.496 295.428 192.896C292.868 191.296 290.905 189.119 289.54 186.367C288.174 183.615 287.492 180.511 287.492 177.055C287.492 173.557 288.196 170.431 289.604 167.679C291.033 164.927 293.038 162.762 295.62 161.183C298.201 159.605 301.252 158.815 304.772 158.815C308.846 158.815 312.26 159.85 315.012 161.919C317.785 163.967 319.556 166.773 320.324 170.336L311.62 172.639C311.108 170.847 310.212 169.45 308.932 168.447C307.673 167.445 306.244 166.944 304.644 166.944C302.809 166.944 301.305 167.392 300.132 168.288C298.958 169.162 298.094 170.367 297.54 171.903C296.985 173.418 296.708 175.135 296.708 177.055C296.708 180.063 297.369 182.506 298.692 184.383C300.036 186.239 302.02 187.167 304.644 187.167C306.606 187.167 308.1 186.719 309.124 185.823C310.148 184.927 310.916 183.647 311.428 181.983L320.324 183.84C319.342 187.509 317.486 190.335 314.756 192.319C312.025 194.303 308.654 195.295 304.644 195.295Z" fill="white"/>
<path d="M323.734 154.976V147.296H332.438V154.976H323.734ZM323.734 194.336V159.776H332.438V194.336H323.734Z" fill="white"/>
<path d="M340.008 194.336V147.296H348.712V194.336H340.008Z" fill="white"/>
</svg>
