<svg width="173" height="44" viewBox="0 0 173 44" fill="none" xmlns="http://www.w3.org/2000/svg">
<path d="M172.572 21.9971C172.572 24.0153 172.426 26.001 172.133 27.9541C171.84 29.9072 171.384 31.8034 170.766 33.6426C170.163 35.4655 169.398 37.2152 168.471 38.8916C167.559 40.568 166.469 42.1387 165.199 43.6035H161.049C162.172 42.0736 163.165 40.446 164.027 38.7207C164.89 36.9954 165.614 35.2132 166.2 33.374C166.786 31.5348 167.226 29.6549 167.519 27.7344C167.812 25.8138 167.958 23.8851 167.958 21.9482C167.958 17.9769 167.372 14.1113 166.2 10.3516C165.028 6.5918 163.295 3.14128 161 0H165.199C166.469 1.51367 167.559 3.13314 168.471 4.8584C169.398 6.56738 170.163 8.35775 170.766 10.2295C171.384 12.085 171.84 14.0055 172.133 15.9912C172.426 17.9606 172.572 19.9626 172.572 21.9971Z" fill="black"/>
<path d="M0 21.9971C0 19.9626 0.146484 17.9606 0.439453 15.9912C0.732422 14.0055 1.18001 12.085 1.78223 10.2295C2.38444 8.35775 3.14128 6.56738 4.05273 4.8584C4.98047 3.13314 6.0791 1.51367 7.34863 0H11.5479C9.26921 3.14128 7.53581 6.5918 6.34766 10.3516C5.17578 14.1113 4.58984 17.9769 4.58984 21.9482C4.58984 23.8851 4.73633 25.8138 5.0293 27.7344C5.33854 29.6549 5.77799 31.5348 6.34766 33.374C6.93359 35.2132 7.65788 36.9954 8.52051 38.7207C9.38314 40.446 10.376 42.0736 11.499 43.6035H7.34863C6.0791 42.1387 4.98047 40.568 4.05273 38.8916C3.14128 37.2152 2.38444 35.4655 1.78223 33.6426C1.18001 31.8034 0.732422 29.9072 0.439453 27.9541C0.146484 26.001 0 24.0153 0 21.9971Z" fill="black"/>
<path d="M45.3972 18.5296L36 9.10284L39.1028 6L48.4704 15.3972L57.9858 6L61.0591 9.04374L51.5733 18.5296L61 27.9858L57.9858 31L48.4704 21.6324L39.1028 30.9409L36.0591 27.8972L45.3972 18.5296Z" fill="black"/>
<path d="M121.397 18.5296L112 9.10284L115.103 6L124.47 15.3972L133.986 6L137.059 9.04374L127.573 18.5296L137 27.9858L133.986 31L124.47 21.6324L115.103 30.9409L112.059 27.8972L121.397 18.5296Z" fill="black"/>
<path d="M102 41H72V37H102V41Z" fill="black"/>
</svg>

