<svg width="866" height="441" viewBox="0 0 866 441" fill="none" xmlns="http://www.w3.org/2000/svg">
<path d="M0 344.4V303L210.6 11.4H276V297H336V344.4H276V441H222V344.4H0ZM224.4 68.4L63 297H224.4V68.4Z" fill="black" fill-opacity="0.2"/>
<path d="M390.544 219.6C390.544 150.8 401.744 97.2 424.144 58.8C446.544 20 485.744 0.599976 541.744 0.599976C597.344 0.599976 636.344 20 658.744 58.8C681.144 97.2 692.344 150.8 692.344 219.6C692.344 289.6 681.144 344 658.744 382.8C636.344 421.6 597.344 441 541.744 441C485.744 441 446.544 421.6 424.144 382.8C401.744 344 390.544 289.6 390.544 219.6ZM638.344 219.6C638.344 184.8 635.944 155.4 631.144 131.4C626.744 107 617.344 87.4 602.944 72.6C588.944 57.8 568.544 50.4 541.744 50.4C514.544 50.4 493.744 57.8 479.344 72.6C465.344 87.4 455.944 107 451.144 131.4C446.744 155.4 444.544 184.8 444.544 219.6C444.544 255.6 446.744 285.8 451.144 310.2C455.944 334.6 465.344 354.2 479.344 369C493.744 383.8 514.544 391.2 541.744 391.2C568.544 391.2 588.944 383.8 602.944 369C617.344 354.2 626.744 334.6 631.144 310.2C635.944 285.8 638.344 255.6 638.344 219.6Z" fill="black" fill-opacity="0.2"/>
<path d="M752.902 57V7.19996H865.702V441H810.502V57H752.902Z" fill="black" fill-opacity="0.2"/>
<mask id="path-2-outside-1" maskUnits="userSpaceOnUse" x="121" y="42" width="705" height="357" fill="black">
<rect fill="white" x="121" y="42" width="705" height="357"/>
<path d="M141 219.938C141 198.75 143.812 178.406 149.438 158.906C155.156 139.406 163.641 121.688 174.891 105.75C186.141 89.8125 197.812 78.5625 209.906 72L215.25 89.1562C201.562 99.6562 190.312 115.688 181.5 137.25C172.781 158.812 168 182.953 167.156 209.672L167.016 221.625C167.016 257.812 173.625 289.219 186.844 315.844C194.812 331.781 204.281 344.25 215.25 353.25L209.906 369.141C197.438 362.203 185.531 350.578 174.188 334.266C152.062 302.391 141 264.281 141 219.938Z"/>
<path d="M314.622 306.503C299.07 306.503 285.054 303.527 272.574 297.575C260.286 291.623 250.59 282.983 243.486 271.655C236.382 260.135 232.83 246.119 232.83 229.607C232.83 215.015 235.422 202.535 240.606 192.167C245.982 181.607 253.374 173.063 262.782 166.535H232.83V144.359H335.358C345.726 144.359 353.022 143.879 357.246 142.919C361.47 141.959 364.638 140.711 366.75 139.175C369.246 137.255 370.878 135.143 371.646 132.839C372.606 130.343 373.086 127.751 373.086 125.063C373.086 112.775 366.846 100.391 354.366 87.9109L373.086 75.5269C382.11 85.5109 388.254 94.5349 391.518 102.599C394.782 110.471 396.414 118.535 396.414 126.791C396.414 130.439 395.646 134.951 394.11 140.327C392.574 145.511 389.406 150.215 384.606 154.439C382.11 156.743 379.134 158.759 375.678 160.487C372.414 162.215 368.862 163.559 365.022 164.519C375.006 171.431 382.686 180.071 388.062 190.439C393.63 200.807 396.414 213.863 396.414 229.607C396.414 244.583 393.15 257.831 386.622 269.351C380.094 280.871 370.686 289.991 358.398 296.711C346.302 303.239 331.71 306.503 314.622 306.503ZM314.91 283.175C327.966 283.175 338.718 280.583 347.166 275.399C355.806 270.215 362.238 263.207 366.462 254.375C370.686 245.351 372.798 235.463 372.798 224.711C372.798 212.231 370.206 201.671 365.022 193.031C360.03 184.199 353.214 177.479 344.574 172.871C335.934 168.263 326.142 165.959 315.198 165.959C297.342 165.959 283.038 171.335 272.286 182.087C261.726 192.839 256.446 207.047 256.446 224.711C256.446 243.335 261.726 257.735 272.286 267.911C283.038 278.087 297.246 283.175 314.91 283.175ZM314.622 240.551C310.014 240.551 306.078 238.919 302.814 235.655C299.55 232.391 297.918 228.359 297.918 223.559C297.918 218.759 299.55 214.727 302.814 211.463C306.078 208.199 310.014 206.567 314.622 206.567C319.422 206.567 323.358 208.199 326.43 211.463C329.694 214.727 331.326 218.759 331.326 223.559C331.326 228.359 329.694 232.391 326.43 235.655C323.358 238.919 319.422 240.551 314.622 240.551Z"/>
<path d="M537.703 324.281H408.891V303.047H537.703V324.281Z"/>
<path d="M632.154 306.503C616.602 306.503 602.586 303.527 590.106 297.575C577.818 291.623 568.122 282.983 561.018 271.655C553.914 260.135 550.362 246.119 550.362 229.607C550.362 215.015 552.954 202.535 558.138 192.167C563.514 181.607 570.906 173.063 580.314 166.535H550.362V144.359H652.89C663.258 144.359 670.554 143.879 674.778 142.919C679.002 141.959 682.17 140.711 684.282 139.175C686.778 137.255 688.41 135.143 689.178 132.839C690.138 130.343 690.618 127.751 690.618 125.063C690.618 112.775 684.378 100.391 671.898 87.9109L690.618 75.5269C699.642 85.5109 705.786 94.5349 709.05 102.599C712.314 110.471 713.946 118.535 713.946 126.791C713.946 130.439 713.178 134.951 711.642 140.327C710.106 145.511 706.938 150.215 702.138 154.439C699.642 156.743 696.666 158.759 693.21 160.487C689.946 162.215 686.394 163.559 682.554 164.519C692.538 171.431 700.218 180.071 705.594 190.439C711.162 200.807 713.946 213.863 713.946 229.607C713.946 244.583 710.682 257.831 704.154 269.351C697.626 280.871 688.218 289.991 675.93 296.711C663.834 303.239 649.242 306.503 632.154 306.503ZM632.442 283.175C645.498 283.175 656.25 280.583 664.698 275.399C673.338 270.215 679.77 263.207 683.994 254.375C688.218 245.351 690.33 235.463 690.33 224.711C690.33 212.231 687.738 201.671 682.554 193.031C677.562 184.199 670.746 177.479 662.106 172.871C653.466 168.263 643.674 165.959 632.73 165.959C614.874 165.959 600.57 171.335 589.818 182.087C579.258 192.839 573.978 207.047 573.978 224.711C573.978 243.335 579.258 257.735 589.818 267.911C600.57 278.087 614.778 283.175 632.442 283.175ZM632.154 240.551C627.546 240.551 623.61 238.919 620.346 235.655C617.082 232.391 615.45 228.359 615.45 223.559C615.45 218.759 617.082 214.727 620.346 211.463C623.61 208.199 627.546 206.567 632.154 206.567C636.954 206.567 640.89 208.199 643.962 211.463C647.226 214.727 648.858 218.759 648.858 223.559C648.858 228.359 647.226 232.391 643.962 235.655C640.89 238.919 636.954 240.551 632.154 240.551Z"/>
<path d="M805.594 221.344C805.594 242.25 802.828 262.312 797.297 281.531C791.859 300.656 783.469 318.328 772.125 334.547C760.875 350.766 749.062 362.297 736.688 369.141L731.203 353.25C745.641 342.188 757.219 325.031 765.938 301.781C774.75 278.438 779.25 252.562 779.438 224.156V219.656C779.438 199.969 777.375 181.688 773.25 164.812C769.125 147.844 763.359 132.656 755.953 119.25C748.641 105.844 740.391 95.3906 731.203 87.8906L736.688 72C749.062 78.8438 760.828 90.2812 771.984 106.312C783.234 122.344 791.625 140.016 797.156 159.328C802.781 178.641 805.594 199.312 805.594 221.344Z"/>
</mask>
<path d="M141 219.938C141 198.75 143.812 178.406 149.438 158.906C155.156 139.406 163.641 121.688 174.891 105.75C186.141 89.8125 197.812 78.5625 209.906 72L215.25 89.1562C201.562 99.6562 190.312 115.688 181.5 137.25C172.781 158.812 168 182.953 167.156 209.672L167.016 221.625C167.016 257.812 173.625 289.219 186.844 315.844C194.812 331.781 204.281 344.25 215.25 353.25L209.906 369.141C197.438 362.203 185.531 350.578 174.188 334.266C152.062 302.391 141 264.281 141 219.938Z" fill="black"/>
<path d="M314.622 306.503C299.07 306.503 285.054 303.527 272.574 297.575C260.286 291.623 250.59 282.983 243.486 271.655C236.382 260.135 232.83 246.119 232.83 229.607C232.83 215.015 235.422 202.535 240.606 192.167C245.982 181.607 253.374 173.063 262.782 166.535H232.83V144.359H335.358C345.726 144.359 353.022 143.879 357.246 142.919C361.47 141.959 364.638 140.711 366.75 139.175C369.246 137.255 370.878 135.143 371.646 132.839C372.606 130.343 373.086 127.751 373.086 125.063C373.086 112.775 366.846 100.391 354.366 87.9109L373.086 75.5269C382.11 85.5109 388.254 94.5349 391.518 102.599C394.782 110.471 396.414 118.535 396.414 126.791C396.414 130.439 395.646 134.951 394.11 140.327C392.574 145.511 389.406 150.215 384.606 154.439C382.11 156.743 379.134 158.759 375.678 160.487C372.414 162.215 368.862 163.559 365.022 164.519C375.006 171.431 382.686 180.071 388.062 190.439C393.63 200.807 396.414 213.863 396.414 229.607C396.414 244.583 393.15 257.831 386.622 269.351C380.094 280.871 370.686 289.991 358.398 296.711C346.302 303.239 331.71 306.503 314.622 306.503ZM314.91 283.175C327.966 283.175 338.718 280.583 347.166 275.399C355.806 270.215 362.238 263.207 366.462 254.375C370.686 245.351 372.798 235.463 372.798 224.711C372.798 212.231 370.206 201.671 365.022 193.031C360.03 184.199 353.214 177.479 344.574 172.871C335.934 168.263 326.142 165.959 315.198 165.959C297.342 165.959 283.038 171.335 272.286 182.087C261.726 192.839 256.446 207.047 256.446 224.711C256.446 243.335 261.726 257.735 272.286 267.911C283.038 278.087 297.246 283.175 314.91 283.175ZM314.622 240.551C310.014 240.551 306.078 238.919 302.814 235.655C299.55 232.391 297.918 228.359 297.918 223.559C297.918 218.759 299.55 214.727 302.814 211.463C306.078 208.199 310.014 206.567 314.622 206.567C319.422 206.567 323.358 208.199 326.43 211.463C329.694 214.727 331.326 218.759 331.326 223.559C331.326 228.359 329.694 232.391 326.43 235.655C323.358 238.919 319.422 240.551 314.622 240.551Z" fill="black"/>
<path d="M537.703 324.281H408.891V303.047H537.703V324.281Z" fill="black"/>
<path d="M632.154 306.503C616.602 306.503 602.586 303.527 590.106 297.575C577.818 291.623 568.122 282.983 561.018 271.655C553.914 260.135 550.362 246.119 550.362 229.607C550.362 215.015 552.954 202.535 558.138 192.167C563.514 181.607 570.906 173.063 580.314 166.535H550.362V144.359H652.89C663.258 144.359 670.554 143.879 674.778 142.919C679.002 141.959 682.17 140.711 684.282 139.175C686.778 137.255 688.41 135.143 689.178 132.839C690.138 130.343 690.618 127.751 690.618 125.063C690.618 112.775 684.378 100.391 671.898 87.9109L690.618 75.5269C699.642 85.5109 705.786 94.5349 709.05 102.599C712.314 110.471 713.946 118.535 713.946 126.791C713.946 130.439 713.178 134.951 711.642 140.327C710.106 145.511 706.938 150.215 702.138 154.439C699.642 156.743 696.666 158.759 693.21 160.487C689.946 162.215 686.394 163.559 682.554 164.519C692.538 171.431 700.218 180.071 705.594 190.439C711.162 200.807 713.946 213.863 713.946 229.607C713.946 244.583 710.682 257.831 704.154 269.351C697.626 280.871 688.218 289.991 675.93 296.711C663.834 303.239 649.242 306.503 632.154 306.503ZM632.442 283.175C645.498 283.175 656.25 280.583 664.698 275.399C673.338 270.215 679.77 263.207 683.994 254.375C688.218 245.351 690.33 235.463 690.33 224.711C690.33 212.231 687.738 201.671 682.554 193.031C677.562 184.199 670.746 177.479 662.106 172.871C653.466 168.263 643.674 165.959 632.73 165.959C614.874 165.959 600.57 171.335 589.818 182.087C579.258 192.839 573.978 207.047 573.978 224.711C573.978 243.335 579.258 257.735 589.818 267.911C600.57 278.087 614.778 283.175 632.442 283.175ZM632.154 240.551C627.546 240.551 623.61 238.919 620.346 235.655C617.082 232.391 615.45 228.359 615.45 223.559C615.45 218.759 617.082 214.727 620.346 211.463C623.61 208.199 627.546 206.567 632.154 206.567C636.954 206.567 640.89 208.199 643.962 211.463C647.226 214.727 648.858 218.759 648.858 223.559C648.858 228.359 647.226 232.391 643.962 235.655C640.89 238.919 636.954 240.551 632.154 240.551Z" fill="black"/>
<path d="M805.594 221.344C805.594 242.25 802.828 262.312 797.297 281.531C791.859 300.656 783.469 318.328 772.125 334.547C760.875 350.766 749.062 362.297 736.688 369.141L731.203 353.25C745.641 342.188 757.219 325.031 765.938 301.781C774.75 278.438 779.25 252.562 779.438 224.156V219.656C779.438 199.969 777.375 181.688 773.25 164.812C769.125 147.844 763.359 132.656 755.953 119.25C748.641 105.844 740.391 95.3906 731.203 87.8906L736.688 72C749.062 78.8438 760.828 90.2812 771.984 106.312C783.234 122.344 791.625 140.016 797.156 159.328C802.781 178.641 805.594 199.312 805.594 221.344Z" fill="black"/>
<path d="M141 219.938C141 198.75 143.812 178.406 149.438 158.906C155.156 139.406 163.641 121.688 174.891 105.75C186.141 89.8125 197.812 78.5625 209.906 72L215.25 89.1562C201.562 99.6562 190.312 115.688 181.5 137.25C172.781 158.812 168 182.953 167.156 209.672L167.016 221.625C167.016 257.812 173.625 289.219 186.844 315.844C194.812 331.781 204.281 344.25 215.25 353.25L209.906 369.141C197.438 362.203 185.531 350.578 174.188 334.266C152.062 302.391 141 264.281 141 219.938Z" stroke="white" stroke-width="40" mask="url(#path-2-outside-1)"/>
<path d="M314.622 306.503C299.07 306.503 285.054 303.527 272.574 297.575C260.286 291.623 250.59 282.983 243.486 271.655C236.382 260.135 232.83 246.119 232.83 229.607C232.83 215.015 235.422 202.535 240.606 192.167C245.982 181.607 253.374 173.063 262.782 166.535H232.83V144.359H335.358C345.726 144.359 353.022 143.879 357.246 142.919C361.47 141.959 364.638 140.711 366.75 139.175C369.246 137.255 370.878 135.143 371.646 132.839C372.606 130.343 373.086 127.751 373.086 125.063C373.086 112.775 366.846 100.391 354.366 87.9109L373.086 75.5269C382.11 85.5109 388.254 94.5349 391.518 102.599C394.782 110.471 396.414 118.535 396.414 126.791C396.414 130.439 395.646 134.951 394.11 140.327C392.574 145.511 389.406 150.215 384.606 154.439C382.11 156.743 379.134 158.759 375.678 160.487C372.414 162.215 368.862 163.559 365.022 164.519C375.006 171.431 382.686 180.071 388.062 190.439C393.63 200.807 396.414 213.863 396.414 229.607C396.414 244.583 393.15 257.831 386.622 269.351C380.094 280.871 370.686 289.991 358.398 296.711C346.302 303.239 331.71 306.503 314.622 306.503ZM314.91 283.175C327.966 283.175 338.718 280.583 347.166 275.399C355.806 270.215 362.238 263.207 366.462 254.375C370.686 245.351 372.798 235.463 372.798 224.711C372.798 212.231 370.206 201.671 365.022 193.031C360.03 184.199 353.214 177.479 344.574 172.871C335.934 168.263 326.142 165.959 315.198 165.959C297.342 165.959 283.038 171.335 272.286 182.087C261.726 192.839 256.446 207.047 256.446 224.711C256.446 243.335 261.726 257.735 272.286 267.911C283.038 278.087 297.246 283.175 314.91 283.175ZM314.622 240.551C310.014 240.551 306.078 238.919 302.814 235.655C299.55 232.391 297.918 228.359 297.918 223.559C297.918 218.759 299.55 214.727 302.814 211.463C306.078 208.199 310.014 206.567 314.622 206.567C319.422 206.567 323.358 208.199 326.43 211.463C329.694 214.727 331.326 218.759 331.326 223.559C331.326 228.359 329.694 232.391 326.43 235.655C323.358 238.919 319.422 240.551 314.622 240.551Z" stroke="white" stroke-width="40" mask="url(#path-2-outside-1)"/>
<path d="M537.703 324.281H408.891V303.047H537.703V324.281Z" stroke="white" stroke-width="40" mask="url(#path-2-outside-1)"/>
<path d="M632.154 306.503C616.602 306.503 602.586 303.527 590.106 297.575C577.818 291.623 568.122 282.983 561.018 271.655C553.914 260.135 550.362 246.119 550.362 229.607C550.362 215.015 552.954 202.535 558.138 192.167C563.514 181.607 570.906 173.063 580.314 166.535H550.362V144.359H652.89C663.258 144.359 670.554 143.879 674.778 142.919C679.002 141.959 682.17 140.711 684.282 139.175C686.778 137.255 688.41 135.143 689.178 132.839C690.138 130.343 690.618 127.751 690.618 125.063C690.618 112.775 684.378 100.391 671.898 87.9109L690.618 75.5269C699.642 85.5109 705.786 94.5349 709.05 102.599C712.314 110.471 713.946 118.535 713.946 126.791C713.946 130.439 713.178 134.951 711.642 140.327C710.106 145.511 706.938 150.215 702.138 154.439C699.642 156.743 696.666 158.759 693.21 160.487C689.946 162.215 686.394 163.559 682.554 164.519C692.538 171.431 700.218 180.071 705.594 190.439C711.162 200.807 713.946 213.863 713.946 229.607C713.946 244.583 710.682 257.831 704.154 269.351C697.626 280.871 688.218 289.991 675.93 296.711C663.834 303.239 649.242 306.503 632.154 306.503ZM632.442 283.175C645.498 283.175 656.25 280.583 664.698 275.399C673.338 270.215 679.77 263.207 683.994 254.375C688.218 245.351 690.33 235.463 690.33 224.711C690.33 212.231 687.738 201.671 682.554 193.031C677.562 184.199 670.746 177.479 662.106 172.871C653.466 168.263 643.674 165.959 632.73 165.959C614.874 165.959 600.57 171.335 589.818 182.087C579.258 192.839 573.978 207.047 573.978 224.711C573.978 243.335 579.258 257.735 589.818 267.911C600.57 278.087 614.778 283.175 632.442 283.175ZM632.154 240.551C627.546 240.551 623.61 238.919 620.346 235.655C617.082 232.391 615.45 228.359 615.45 223.559C615.45 218.759 617.082 214.727 620.346 211.463C623.61 208.199 627.546 206.567 632.154 206.567C636.954 206.567 640.89 208.199 643.962 211.463C647.226 214.727 648.858 218.759 648.858 223.559C648.858 228.359 647.226 232.391 643.962 235.655C640.89 238.919 636.954 240.551 632.154 240.551Z" stroke="white" stroke-width="40" mask="url(#path-2-outside-1)"/>
<path d="M805.594 221.344C805.594 242.25 802.828 262.312 797.297 281.531C791.859 300.656 783.469 318.328 772.125 334.547C760.875 350.766 749.062 362.297 736.688 369.141L731.203 353.25C745.641 342.188 757.219 325.031 765.938 301.781C774.75 278.438 779.25 252.562 779.438 224.156V219.656C779.438 199.969 777.375 181.688 773.25 164.812C769.125 147.844 763.359 132.656 755.953 119.25C748.641 105.844 740.391 95.3906 731.203 87.8906L736.688 72C749.062 78.8438 760.828 90.2812 771.984 106.312C783.234 122.344 791.625 140.016 797.156 159.328C802.781 178.641 805.594 199.312 805.594 221.344Z" stroke="white" stroke-width="40" mask="url(#path-2-outside-1)"/>
</svg>
