<svg width="1091" height="441" viewBox="0 0 1091 441" fill="none" xmlns="http://www.w3.org/2000/svg">
<path d="M0 344.4V303L210.6 11.4H276V297H336V344.4H276V441H222V344.4H0ZM224.4 68.4L63 297H224.4V68.4Z" fill="black" fill-opacity="0.3"/>
<path d="M390.544 219.6C390.544 150.8 401.744 97.2 424.144 58.8C446.544 20 485.744 0.599976 541.744 0.599976C597.344 0.599976 636.344 20 658.744 58.8C681.144 97.2 692.344 150.8 692.344 219.6C692.344 289.6 681.144 344 658.744 382.8C636.344 421.6 597.344 441 541.744 441C485.744 441 446.544 421.6 424.144 382.8C401.744 344 390.544 289.6 390.544 219.6ZM638.344 219.6C638.344 184.8 635.944 155.4 631.144 131.4C626.744 107 617.344 87.4 602.944 72.6C588.944 57.8 568.544 50.4 541.744 50.4C514.544 50.4 493.744 57.8 479.344 72.6C465.344 87.4 455.944 107 451.144 131.4C446.744 155.4 444.544 184.8 444.544 219.6C444.544 255.6 446.744 285.8 451.144 310.2C455.944 334.6 465.344 354.2 479.344 369C493.744 383.8 514.544 391.2 541.744 391.2C568.544 391.2 588.944 383.8 602.944 369C617.344 354.2 626.744 334.6 631.144 310.2C635.944 285.8 638.344 255.6 638.344 219.6Z" fill="black" fill-opacity="0.3"/>
<path d="M754.102 344.4V303L964.702 11.4H1030.1V297H1090.1V344.4H1030.1V441H976.102V344.4H754.102ZM978.502 68.4L817.102 297H978.502V68.4Z" fill="black" fill-opacity="0.3"/>
<path d="M242.545 169.045L242.539 169.066L242.532 169.088C236.636 189.528 233.703 210.807 233.703 232.891C233.703 278.971 245.228 319.14 268.676 352.921L268.681 352.928C280.574 370.03 293.529 382.921 307.747 390.832L318.255 396.679L322.088 385.281L327.432 369.391L329.631 362.85L324.296 358.472C314.657 350.563 305.992 339.323 298.497 324.337C286.109 299.379 279.726 269.58 279.719 234.637L279.858 222.843C280.678 197.176 285.265 174.259 293.467 153.97C301.834 133.503 312.17 119.149 324.04 110.044L329.576 105.797L327.501 99.1355L322.157 81.9793L318.537 70.3589L307.84 76.1638C293.952 83.6998 281.214 96.2335 269.424 112.936C257.513 129.81 248.56 148.534 242.545 169.045ZM328.819 262.727L321.988 269.682L328.766 276.688L345.501 293.984L352.633 301.357L359.822 294.039L399.234 253.912L438.647 294.039L445.835 301.357L452.968 293.984L469.703 276.688L476.48 269.682L469.65 262.727L430.115 222.474L469.38 182.371L476.189 175.417L469.421 168.422L452.687 151.125L445.554 143.752L438.365 151.071L399.234 190.916L360.103 151.071L352.915 143.752L345.782 151.125L329.047 168.422L322.28 175.417L329.089 182.371L368.354 222.474L328.819 262.727ZM606.375 347.234H616.375V337.234V316V306H606.375H477.562H467.562V316V337.234V347.234H477.562H606.375ZM612.319 262.727L605.488 269.682L612.266 276.688L629.001 293.984L636.133 301.357L643.322 294.039L682.734 253.912L722.147 294.039L729.335 301.357L736.468 293.984L753.203 276.688L759.98 269.682L753.15 262.727L713.615 222.474L752.88 182.371L759.689 175.417L752.921 168.422L736.187 151.125L729.054 143.752L721.865 151.071L682.734 190.916L643.603 151.071L636.415 143.752L629.282 151.125L612.547 168.422L605.78 175.417L612.589 182.371L651.854 222.474L612.319 262.727ZM761.875 385.356L765.757 396.602L776.168 390.845C790.309 383.024 803.176 370.218 814.974 353.212C826.948 336.088 835.811 317.417 841.55 297.242C847.35 277.087 850.234 256.093 850.234 234.297C850.234 211.418 847.314 189.806 841.405 169.51C835.578 149.171 826.719 130.496 814.824 113.54C803.11 96.7102 790.29 84.0125 776.168 76.2022L765.757 70.4446L761.875 81.6906L756.391 97.5813L754.114 104.178L759.52 108.59C767.463 115.074 774.951 124.409 781.815 136.992L781.828 137.015L781.841 137.039C788.762 149.567 794.23 163.904 798.174 180.128L798.177 180.14C802.088 196.143 804.078 213.618 804.078 232.609V237.08C803.894 264.449 799.559 289.119 791.223 311.203L791.219 311.213L791.215 311.223C782.922 333.338 772.263 348.686 759.762 358.265L754.039 362.65L756.391 369.466L761.875 385.356Z" fill="black" stroke="white" stroke-width="20"/>
</svg>
