<svg width="153" height="62" viewBox="0 0 153 62" fill="none" xmlns="http://www.w3.org/2000/svg">
<path d="M19.952 2.276C20.528 2.588 20.816 3.068 20.816 3.716C20.816 4.148 20.672 4.544 20.384 4.904C20.096 5.288 19.7 5.48 19.196 5.48C18.86 5.48 18.536 5.396 18.224 5.228C16.736 4.388 15.128 3.968 13.4 3.968C11.6 3.968 10.004 4.364 8.61197 5.156C7.24397 5.948 6.17597 7.064 5.40797 8.504C4.63997 9.92 4.25597 11.552 4.25597 13.4C4.25597 15.392 4.65197 17.108 5.44397 18.548C6.23597 19.988 7.32797 21.092 8.71997 21.86C10.112 22.604 11.672 22.976 13.4 22.976C15.176 22.976 16.784 22.544 18.224 21.68C18.512 21.536 18.824 21.464 19.16 21.464C19.688 21.464 20.108 21.668 20.42 22.076C20.708 22.436 20.852 22.82 20.852 23.228C20.852 23.516 20.768 23.792 20.6 24.056C20.456 24.296 20.252 24.488 19.988 24.632C19.052 25.16 17.996 25.58 16.82 25.892C15.668 26.204 14.528 26.36 13.4 26.36C11.072 26.36 8.92397 25.844 6.95597 24.812C5.01197 23.78 3.45197 22.28 2.27597 20.312C1.12397 18.344 0.547974 16.04 0.547974 13.4C0.547974 10.976 1.09997 8.792 2.20397 6.848C3.33197 4.88 4.86797 3.344 6.81197 2.24C8.77997 1.112 10.976 0.548003 13.4 0.548003C15.728 0.548003 17.912 1.124 19.952 2.276Z" fill="white"/>
<path d="M38.841 22.652C39.345 22.652 39.753 22.808 40.065 23.12C40.401 23.432 40.569 23.84 40.569 24.344C40.569 24.824 40.401 25.22 40.065 25.532C39.753 25.844 39.345 26 38.841 26H26.673C26.169 26 25.749 25.832 25.413 25.496C25.101 25.16 24.945 24.752 24.945 24.272V2.528C24.945 2.048 25.113 1.64 25.449 1.304C25.785 0.968002 26.217 0.800002 26.745 0.800002C27.225 0.800002 27.633 0.968002 27.969 1.304C28.329 1.64 28.509 2.048 28.509 2.528V22.652H38.841Z" fill="white"/>
<path d="M61.8909 0.764003C62.3948 0.764003 62.7908 0.932003 63.0788 1.268C63.3908 1.58 63.5468 1.988 63.5468 2.492V16.316C63.5468 18.212 63.1268 19.916 62.2868 21.428C61.4468 22.94 60.2828 24.128 58.7948 24.992C57.3308 25.832 55.6749 26.252 53.8269 26.252C51.9549 26.252 50.2749 25.832 48.7868 24.992C47.2989 24.128 46.1348 22.94 45.2948 21.428C44.4548 19.916 44.0348 18.212 44.0348 16.316V2.492C44.0348 1.988 44.2028 1.58 44.5388 1.268C44.8748 0.932003 45.3069 0.764003 45.8349 0.764003C46.2909 0.764003 46.6869 0.932003 47.0229 1.268C47.3829 1.604 47.5628 2.012 47.5628 2.492V16.316C47.5628 17.564 47.8508 18.692 48.4268 19.7C49.0028 20.684 49.7709 21.452 50.7309 22.004C51.6909 22.556 52.7229 22.832 53.8269 22.832C54.9789 22.832 56.0468 22.556 57.0308 22.004C58.0148 21.452 58.7948 20.684 59.3708 19.7C59.9709 18.692 60.2709 17.564 60.2709 16.316V2.492C60.2709 1.988 60.4149 1.58 60.7029 1.268C60.9909 0.932003 61.3868 0.764003 61.8909 0.764003Z" fill="white"/>
<path d="M83.9591 12.248C85.2791 12.704 86.3591 13.46 87.1991 14.516C88.0631 15.548 88.4951 16.904 88.4951 18.584C88.4951 21.248 87.7151 23.156 86.1551 24.308C84.6191 25.436 82.7351 26 80.5031 26H71.2511C70.7711 26 70.3631 25.832 70.0271 25.496C69.6911 25.16 69.5231 24.752 69.5231 24.272V2.528C69.5231 2.048 69.6911 1.64 70.0271 1.304C70.3631 0.968002 70.7711 0.800002 71.2511 0.800002H80.5031C82.6871 0.800002 84.3431 1.34 85.4711 2.42C86.6231 3.5 87.1991 5.06 87.1991 7.1C87.1991 8.252 86.9231 9.284 86.3711 10.196C85.8191 11.084 85.0151 11.768 83.9591 12.248ZM83.4911 7.64C83.4911 6.512 83.1791 5.66 82.5551 5.084C81.9551 4.484 81.1031 4.184 79.9991 4.184H73.1951V11.204H80.0711C81.0551 11.18 81.8711 10.868 82.5191 10.268C83.1671 9.644 83.4911 8.768 83.4911 7.64ZM80.4671 22.688C81.7871 22.688 82.8431 22.352 83.6351 21.68C84.4271 20.984 84.8231 19.952 84.8231 18.584C84.8231 15.92 83.3111 14.588 80.2871 14.588H73.1951V22.688H80.4671Z" fill="white"/>
<path d="M100.675 26.36C98.9227 26.36 97.3747 26.12 96.0307 25.64C94.6867 25.136 93.4027 24.332 92.1787 23.228C91.6747 22.796 91.4227 22.304 91.4227 21.752C91.4227 21.32 91.5907 20.936 91.9267 20.6C92.2627 20.24 92.6587 20.06 93.1147 20.06C93.5227 20.06 93.8707 20.192 94.1587 20.456C95.1187 21.344 96.1027 22.004 97.1107 22.436C98.1427 22.844 99.3067 23.048 100.603 23.048C102.115 23.048 103.387 22.7 104.419 22.004C105.475 21.308 106.003 20.432 106.003 19.376C105.979 18.128 105.451 17.168 104.419 16.496C103.411 15.8 101.863 15.224 99.7747 14.768C97.3027 14.264 95.3947 13.436 94.0507 12.284C92.7307 11.132 92.0707 9.536 92.0707 7.496C92.0707 6.08 92.4427 4.844 93.1867 3.788C93.9307 2.708 94.9627 1.88 96.2827 1.304C97.6027 0.728002 99.0907 0.440002 100.747 0.440002C102.235 0.440002 103.639 0.680002 104.959 1.16C106.279 1.64 107.347 2.276 108.163 3.068C108.715 3.548 108.991 4.064 108.991 4.616C108.991 5.048 108.823 5.432 108.487 5.768C108.175 6.104 107.791 6.272 107.335 6.272C106.999 6.272 106.723 6.176 106.507 5.984C105.883 5.36 105.019 4.832 103.915 4.4C102.811 3.968 101.755 3.752 100.747 3.752C99.1387 3.752 97.8547 4.088 96.8947 4.76C95.9587 5.408 95.4907 6.272 95.4907 7.352C95.4907 8.528 95.9587 9.428 96.8947 10.052C97.8547 10.676 99.2707 11.204 101.143 11.636C103.015 12.044 104.539 12.524 105.715 13.076C106.915 13.628 107.839 14.396 108.487 15.38C109.135 16.364 109.459 17.648 109.459 19.232C109.459 20.624 109.063 21.86 108.271 22.94C107.503 24.02 106.447 24.86 105.103 25.46C103.759 26.06 102.283 26.36 100.675 26.36Z" fill="white"/>
<path d="M19.952 37.276C20.528 37.588 20.816 38.068 20.816 38.716C20.816 39.148 20.672 39.544 20.384 39.904C20.096 40.288 19.7 40.48 19.196 40.48C18.86 40.48 18.536 40.396 18.224 40.228C16.736 39.388 15.128 38.968 13.4 38.968C11.6 38.968 10.004 39.364 8.61197 40.156C7.24397 40.948 6.17597 42.064 5.40797 43.504C4.63997 44.92 4.25597 46.552 4.25597 48.4C4.25597 50.392 4.65197 52.108 5.44397 53.548C6.23597 54.988 7.32797 56.092 8.71997 56.86C10.112 57.604 11.672 57.976 13.4 57.976C15.176 57.976 16.784 57.544 18.224 56.68C18.512 56.536 18.824 56.464 19.16 56.464C19.688 56.464 20.108 56.668 20.42 57.076C20.708 57.436 20.852 57.82 20.852 58.228C20.852 58.516 20.768 58.792 20.6 59.056C20.456 59.296 20.252 59.488 19.988 59.632C19.052 60.16 17.996 60.58 16.82 60.892C15.668 61.204 14.528 61.36 13.4 61.36C11.072 61.36 8.92397 60.844 6.95597 59.812C5.01197 58.78 3.45197 57.28 2.27597 55.312C1.12397 53.344 0.547974 51.04 0.547974 48.4C0.547974 45.976 1.09997 43.792 2.20397 41.848C3.33197 39.88 4.86797 38.344 6.81197 37.24C8.77997 36.112 10.976 35.548 13.4 35.548C15.728 35.548 17.912 36.124 19.952 37.276Z" fill="white"/>
<path d="M47.841 48.4C47.841 50.824 47.313 53.02 46.257 54.988C45.225 56.956 43.785 58.516 41.937 59.668C40.089 60.796 38.001 61.36 35.673 61.36C33.345 61.36 31.257 60.796 29.409 59.668C27.561 58.516 26.109 56.956 25.053 54.988C24.021 53.02 23.505 50.824 23.505 48.4C23.505 45.976 24.021 43.78 25.053 41.812C26.109 39.844 27.561 38.296 29.409 37.168C31.257 36.016 33.345 35.44 35.673 35.44C38.001 35.44 40.089 36.016 41.937 37.168C43.785 38.296 45.225 39.844 46.257 41.812C47.313 43.78 47.841 45.976 47.841 48.4ZM44.133 48.4C44.133 46.6 43.773 44.98 43.053 43.54C42.333 42.076 41.325 40.936 40.029 40.12C38.757 39.28 37.305 38.86 35.673 38.86C34.041 38.86 32.577 39.268 31.281 40.084C30.009 40.9 29.013 42.04 28.293 43.504C27.573 44.944 27.213 46.576 27.213 48.4C27.213 50.2 27.573 51.832 28.293 53.296C29.013 54.736 30.009 55.876 31.281 56.716C32.577 57.532 34.041 57.94 35.673 57.94C37.305 57.94 38.757 57.532 40.029 56.716C41.325 55.876 42.333 54.736 43.053 53.296C43.773 51.832 44.133 50.2 44.133 48.4Z" fill="white"/>
<path d="M70.2229 35.764C70.7269 35.764 71.1229 35.932 71.4109 36.268C71.7229 36.58 71.8789 36.988 71.8789 37.492V51.316C71.8789 53.212 71.4589 54.916 70.6189 56.428C69.7789 57.94 68.6149 59.128 67.1269 59.992C65.6629 60.832 64.0069 61.252 62.1589 61.252C60.2869 61.252 58.6069 60.832 57.1189 59.992C55.6309 59.128 54.4669 57.94 53.6269 56.428C52.7869 54.916 52.3669 53.212 52.3669 51.316V37.492C52.3669 36.988 52.5349 36.58 52.8709 36.268C53.2069 35.932 53.6389 35.764 54.1669 35.764C54.6229 35.764 55.0189 35.932 55.3549 36.268C55.7149 36.604 55.8949 37.012 55.8949 37.492V51.316C55.8949 52.564 56.1829 53.692 56.7589 54.7C57.3349 55.684 58.1029 56.452 59.0629 57.004C60.0229 57.556 61.0549 57.832 62.1589 57.832C63.3109 57.832 64.3789 57.556 65.3629 57.004C66.3469 56.452 67.1269 55.684 67.7029 54.7C68.3029 53.692 68.6029 52.564 68.6029 51.316V37.492C68.6029 36.988 68.7469 36.58 69.0349 36.268C69.3229 35.932 69.7189 35.764 70.2229 35.764Z" fill="white"/>
<path d="M96.6832 35.8C97.1392 35.8 97.5112 35.956 97.7992 36.268C98.0872 36.556 98.2312 36.928 98.2312 37.384V59.236C98.2312 59.74 98.0632 60.16 97.7272 60.496C97.4152 60.832 97.0072 61 96.5032 61C96.2392 61 95.9752 60.964 95.7112 60.892C95.4712 60.796 95.2792 60.664 95.1352 60.496L80.9872 42.064V59.416C80.9872 59.872 80.8312 60.256 80.5192 60.568C80.2312 60.856 79.8592 61 79.4032 61C78.9472 61 78.5752 60.856 78.2872 60.568C77.9992 60.256 77.8552 59.872 77.8552 59.416V37.528C77.8552 37.024 78.0112 36.616 78.3232 36.304C78.6592 35.968 79.0672 35.8 79.5472 35.8C79.8352 35.8 80.1112 35.86 80.3752 35.98C80.6392 36.076 80.8432 36.22 80.9872 36.412L95.0992 54.88V37.384C95.0992 36.928 95.2432 36.556 95.5312 36.268C95.8432 35.956 96.2272 35.8 96.6832 35.8Z" fill="white"/>
<path d="M122.186 37.276C122.762 37.588 123.05 38.068 123.05 38.716C123.05 39.148 122.906 39.544 122.618 39.904C122.33 40.288 121.934 40.48 121.43 40.48C121.094 40.48 120.77 40.396 120.458 40.228C118.97 39.388 117.362 38.968 115.634 38.968C113.834 38.968 112.238 39.364 110.846 40.156C109.478 40.948 108.41 42.064 107.642 43.504C106.874 44.92 106.49 46.552 106.49 48.4C106.49 50.392 106.886 52.108 107.678 53.548C108.47 54.988 109.562 56.092 110.954 56.86C112.346 57.604 113.906 57.976 115.634 57.976C117.41 57.976 119.018 57.544 120.458 56.68C120.746 56.536 121.058 56.464 121.394 56.464C121.922 56.464 122.342 56.668 122.654 57.076C122.942 57.436 123.086 57.82 123.086 58.228C123.086 58.516 123.002 58.792 122.834 59.056C122.69 59.296 122.486 59.488 122.222 59.632C121.286 60.16 120.23 60.58 119.054 60.892C117.902 61.204 116.762 61.36 115.634 61.36C113.306 61.36 111.158 60.844 109.19 59.812C107.246 58.78 105.686 57.28 104.51 55.312C103.358 53.344 102.782 51.04 102.782 48.4C102.782 45.976 103.334 43.792 104.438 41.848C105.566 39.88 107.102 38.344 109.046 37.24C111.014 36.112 113.21 35.548 115.634 35.548C117.962 35.548 120.146 36.124 122.186 37.276Z" fill="white"/>
<path d="M130.743 59.236C130.743 59.74 130.563 60.16 130.203 60.496C129.843 60.832 129.423 61 128.943 61C128.415 61 127.983 60.832 127.647 60.496C127.335 60.16 127.179 59.74 127.179 59.236V37.528C127.179 37.048 127.347 36.64 127.683 36.304C128.019 35.968 128.451 35.8 128.979 35.8C129.459 35.8 129.867 35.968 130.203 36.304C130.563 36.64 130.743 37.048 130.743 37.528V59.236Z" fill="white"/>
<path d="M150.603 57.652C151.107 57.652 151.515 57.808 151.827 58.12C152.163 58.432 152.331 58.84 152.331 59.344C152.331 59.824 152.163 60.22 151.827 60.532C151.515 60.844 151.107 61 150.603 61H138.435C137.931 61 137.511 60.832 137.175 60.496C136.863 60.16 136.707 59.752 136.707 59.272V37.528C136.707 37.048 136.875 36.64 137.211 36.304C137.547 35.968 137.979 35.8 138.507 35.8C138.987 35.8 139.395 35.968 139.731 36.304C140.091 36.64 140.271 37.048 140.271 37.528V57.652H150.603Z" fill="white"/>
</svg>
