<svg width="128" height="128" viewBox="0 0 128 128" fill="none" xmlns="http://www.w3.org/2000/svg">
<path d="M128 64C128 99.3462 99.3462 128 64 128C28.6538 128 0 99.3462 0 64C0 28.6538 28.6538 0 64 0C99.3462 0 128 28.6538 128 64Z" fill="black"/>
<path d="M58.6503 39.9455C60.2112 40.7511 60.9916 42.035 60.9916 43.7972C60.9916 44.8545 60.614 45.8867 59.8587 46.8937C59.0531 47.9511 58.021 48.4797 56.7622 48.4797C55.9063 48.4797 55.0503 48.2531 54.1944 47.8C51.7273 46.642 49.0587 46.0629 46.1888 46.0629C42.6643 46.0629 39.593 46.8182 36.9748 48.3287C34.3566 49.7888 32.3427 51.8783 30.9329 54.5972C29.5231 57.2657 28.8182 60.3371 28.8182 63.8112C28.8182 69.7524 30.4042 74.2587 33.5762 77.3301C36.7986 80.4014 41.0028 81.9371 46.1888 81.9371C49.2601 81.9371 51.9287 81.358 54.1944 80.2C55.1007 79.7972 55.9063 79.5958 56.6112 79.5958C57.9203 79.5958 59.028 80.1497 59.9343 81.2573C60.6895 82.214 61.0671 83.2462 61.0671 84.3538C61.0671 85.1594 60.8657 85.8895 60.4629 86.5441C60.0601 87.1986 59.4811 87.7021 58.7259 88.0545C54.7986 90.0182 50.6196 91 46.1888 91C41.2545 91 36.7231 89.9678 32.5944 87.9035C28.4657 85.7888 25.1678 82.6923 22.7007 78.614C20.2336 74.5357 19 69.6014 19 63.8112C19 58.6755 20.158 54.0685 22.4741 49.9902C24.8406 45.9119 28.0881 42.7399 32.2168 40.4741C36.3455 38.158 41.0028 37 46.1888 37C50.6699 37 54.8238 37.9818 58.6503 39.9455Z" fill="white"/>
<path d="M106.001 39.9455C107.561 40.7511 108.342 42.035 108.342 43.7972C108.342 44.8545 107.964 45.8867 107.209 46.8937C106.403 47.9511 105.371 48.4797 104.113 48.4797C103.257 48.4797 102.401 48.2531 101.545 47.8C99.0776 46.642 96.409 46.0629 93.5391 46.0629C90.0146 46.0629 86.9433 46.8182 84.3251 48.3287C81.7069 49.7888 79.693 51.8783 78.2832 54.5972C76.8734 57.2657 76.1685 60.3371 76.1685 63.8112C76.1685 69.7524 77.7545 74.2587 80.9265 77.3301C84.1489 80.4014 88.3531 81.9371 93.5391 81.9371C96.6104 81.9371 99.279 81.358 101.545 80.2C102.451 79.7972 103.257 79.5958 103.961 79.5958C105.271 79.5958 106.378 80.1497 107.285 81.2573C108.04 82.214 108.417 83.2462 108.417 84.3538C108.417 85.1594 108.216 85.8895 107.813 86.5441C107.41 87.1986 106.831 87.7021 106.076 88.0545C102.149 90.0182 97.9699 91 93.5391 91C88.6048 91 84.0734 89.9678 79.9447 87.9035C75.816 85.7888 72.5181 82.6923 70.051 78.614C67.5839 74.5357 66.3503 69.6014 66.3503 63.8112C66.3503 58.6755 67.5083 54.0685 69.8244 49.9902C72.1909 45.9119 75.4384 42.7399 79.5671 40.4741C83.6958 38.158 88.3531 37 93.5391 37C98.0202 37 102.174 37.9818 106.001 39.9455Z" fill="white"/>
</svg>
