<svg width="380" height="380" viewBox="0 0 380 380" fill="none" xmlns="http://www.w3.org/2000/svg">
<circle cx="190" cy="190" r="190" fill="black"/>
<path d="M128.002 257.179C128.002 257.179 143.403 301.547 210.909 307.619L205.358 304.47L243.646 303.77L240.548 305.671L248.048 304.27C259.88 300.881 270.932 295.669 280.894 288.966L275.824 283.896C259.044 294.871 239.049 301.381 217.497 301.696C208.101 301.834 199.107 300.417 190.374 298.324C196.505 299.227 202.675 300.021 209.071 299.928C232.438 299.586 254.105 292.377 272.186 280.257L267.112 275.183C250.369 286.086 230.441 292.544 208.969 292.859C193.68 293.082 179.098 290.131 165.802 284.678C176.433 287.687 187.448 289.758 199.055 289.588C222.338 289.247 243.934 282.089 261.975 270.047L256.889 264.961C240.189 275.783 220.338 282.194 198.954 282.507C171.908 282.903 147.341 273.117 128.002 257.179V257.179Z" fill="white"/>
<path d="M170.899 74.1442C170.877 74.1458 170.854 74.1464 170.831 74.148L149.127 77.8645C99.5306 91.2892 63 136.633 63 190.453C63 192.442 63.0529 194.417 63.1531 196.38C66.3646 245.92 101.965 276.229 101.965 276.229C89.0366 258.244 88.3279 233.774 88.3279 209.912C88.3279 149.358 137.342 100.344 197.896 100.344C224.945 100.344 250.095 111.513 269.199 127.732C269.199 127.732 251.526 75.4501 170.898 74.144L170.899 74.1442ZM179.635 80.8888C189.033 80.8888 198.607 82.2488 207.308 84.4697C201.191 83.4773 194.431 82.7784 188.035 82.7784C123.659 82.7784 71.4009 135.037 71.4009 199.412C71.4009 204.603 72.2643 209.556 72.9228 214.568C71.1739 206.79 70.0708 198.762 70.0708 190.453C70.0708 129.899 119.081 80.8888 179.635 80.8888V80.8888ZM188.035 89.8477C203.325 89.8477 217.861 93.0113 231.077 98.6579C220.491 95.4943 209.506 93.263 197.897 93.263C133.522 93.263 81.2635 145.537 81.2635 209.912C80.8298 217.602 82.1378 223.295 83.2587 229.782C80.4489 220.079 78.4702 210.026 78.4702 199.412C78.4702 138.858 127.48 89.8477 188.035 89.8477V89.8477Z" fill="white"/>
<path d="M133.119 121.509C133.119 121.509 83.6051 137.8 81.6273 216.962C81.6877 217.948 81.7697 219.178 81.8854 220.452L85.3047 240.42C98.7294 290.015 144.073 326.546 197.893 326.546C199.882 326.546 201.857 326.494 203.82 326.394C253.36 323.182 280.894 288.966 280.894 288.966C262.909 301.894 241.214 301.219 217.352 301.219C156.798 301.219 107.784 252.205 107.784 191.65C107.784 164.602 116.9 140.612 133.119 121.509L133.119 121.509ZM106.098 158.471C102.934 169.057 100.703 180.041 100.703 191.65C100.703 256.026 152.977 308.284 217.353 308.284C224.159 308.284 230.735 307.41 237.222 306.289C227.52 309.099 217.466 311.077 206.852 311.077C146.298 311.077 97.2878 262.067 97.2878 201.513C97.2878 186.223 100.451 171.686 106.098 158.471V158.471ZM92.0963 182.84C91.1039 188.958 90.2185 195.117 90.2185 201.513C90.2185 265.888 142.477 318.147 206.852 318.147C212.043 318.147 216.996 317.283 222.008 316.625C214.23 318.374 206.203 319.477 197.893 319.477C137.339 319.477 88.3289 270.467 88.3289 209.912C88.3289 200.515 89.8755 191.542 92.0963 182.84V182.84Z" fill="white"/>
<path d="M206.837 54.0199C134.794 54.566 103.442 102.179 103.442 102.179C122.78 86.2412 153.141 79.4173 180.187 79.8129C217.298 80.3558 249.8 99.2485 269.201 127.733L274.251 122.679C253.5 92.9674 219.258 73.302 180.289 72.7318C168.681 72.562 157.666 74.6332 147.035 77.6416C160.331 72.189 174.914 69.2376 190.202 69.4613C227.401 70.0055 259.965 88.9848 279.349 117.581L284.407 112.527C263.67 82.7081 229.36 62.9633 190.304 62.392C183.909 62.2984 177.735 63.0931 171.604 63.996C180.337 61.9026 189.334 60.4862 198.731 60.6237C236.009 61.169 268.634 80.2327 288.003 108.931L293.061 103.873C277.925 82.0255 255.509 65.5636 229.277 58.0494L208.531 54.1842L206.837 54.0199Z" fill="white"/>
<path d="M227.888 61.8445L233.665 59.5895C233.665 59.5895 224.233 55.5841 207.336 54.1445C190.439 52.705 161.001 62.4923 161.001 62.4923L197.877 59.189L227.888 61.8445Z" fill="white"/>
<path d="M85.3048 240.42C85.3048 240.42 82.3511 226.391 81.8855 220.452C81.3609 213.761 83.956 210.726 83.956 210.726L88.5772 233.659L85.3048 240.42Z" fill="white"/>
</svg>
