<svg width="733" height="299" viewBox="0 0 733 299" fill="none" xmlns="http://www.w3.org/2000/svg">
<path d="M0.515625 148.891C0.515625 127.703 3.32812 107.359 8.95312 87.8594C14.6719 68.3594 23.1562 50.6406 34.4062 34.7031C45.6562 18.7656 57.3281 7.51562 69.4219 0.953125L74.7656 18.1094C61.0781 28.6094 49.8281 44.6406 41.0156 66.2031C32.2969 87.7656 27.5156 111.906 26.6719 138.625L26.5312 150.578C26.5312 186.766 33.1406 218.172 46.3594 244.797C54.3281 260.734 63.7969 273.203 74.7656 282.203L69.4219 298.094C56.9531 291.156 45.0469 279.531 33.7031 263.219C11.5781 231.344 0.515625 193.234 0.515625 148.891Z" fill="black" fill-opacity="0.3"/>
<path d="M211.594 61.7031L184.875 129.484H160.688L202.734 27.25H220.594L262.5 129.484H238.453L211.594 61.7031Z" fill="black" fill-opacity="0.3"/>
<path d="M401.438 253.234H272.625V232H401.438V253.234Z" fill="black" fill-opacity="0.3"/>
<path d="M461.906 61.7031L435.188 129.484H411L453.047 27.25H470.906L512.812 129.484H488.766L461.906 61.7031Z" fill="black" fill-opacity="0.3"/>
<path d="M602.109 150.397C602.109 171.203 599.344 191.266 593.812 210.484C588.375 229.609 579.984 247.281 568.641 263.5C557.391 279.719 545.578 291.25 533.203 298.094L527.719 282.203C542.156 271.141 553.734 253.984 562.453 230.734C571.266 207.391 575.766 181.516 575.953 153.109V148.609C575.953 128.922 573.891 110.641 569.766 93.7656C565.641 76.7969 559.875 61.6094 552.469 48.2031C545.156 34.7969 536.906 24.3438 527.719 16.8438L533.203 0.953125C545.578 7.79688 557.344 19.2344 568.5 35.2656C579.75 51.2969 588.141 68.9688 593.672 88.2812C599.297 107.594 602.109 128.266 602.109 150.397Z" fill="black" fill-opacity="0.3"/>
<path d="M647.391 249.578H625.031L710.531 27.25H732.75L647.391 249.578Z" fill="black" fill-opacity="0.3"/>
</svg>
