<svg width="1211" height="299" viewBox="0 0 1211 299" fill="none" xmlns="http://www.w3.org/2000/svg">
<path d="M95.4688 48.9062H0.96875V28.7969H95.4688V48.9062ZM118.531 27.25H143.281L228.781 249.578H204.031L118.531 27.25ZM360.406 253.234H231.594V232H360.406V253.234ZM379.672 148.891C379.672 127.703 382.484 107.359 388.109 87.8594C393.828 68.3594 402.312 50.6406 413.562 34.7031C424.812 18.7656 436.484 7.51563 448.578 0.953125L453.922 18.1094C440.234 28.6094 428.984 44.6406 420.172 66.2031C411.453 87.7656 406.672 111.906 405.828 138.625L405.688 150.578C405.688 186.766 412.297 218.172 425.516 244.797C433.484 260.734 442.953 273.203 453.922 282.203L448.578 298.094C436.109 291.156 424.203 279.531 412.859 263.219C390.734 231.344 379.672 193.234 379.672 148.891ZM590.734 15.424L568.558 22.912C575.758 37.888 592.174 82.528 596.782 98.944L619.246 91.168C614.35 75.04 597.07 29.248 590.734 15.424ZM718.606 33.856L692.11 26.368C686.35 69.568 668.782 115.648 646.03 144.736C616.942 181.6 574.03 209.248 532.846 221.344L552.718 241.504C593.326 227.104 635.95 197.44 665.614 158.272C689.23 127.168 704.782 85.984 713.422 50.272C714.574 45.664 716.59 38.752 718.606 33.856ZM510.382 32.704L487.63 41.056C494.542 53.44 514.414 102.112 519.886 119.968L542.638 111.616C536.014 92.896 517.87 48.832 510.382 32.704ZM827.141 150.297C827.141 171.203 824.375 191.266 818.844 210.484C813.406 229.609 805.016 247.281 793.672 263.5C782.422 279.719 770.609 291.25 758.234 298.094L752.75 282.203C767.188 271.141 778.766 253.984 787.484 230.734C796.297 207.391 800.797 181.516 800.984 153.109V148.609C800.984 128.922 798.922 110.641 794.797 93.7656C790.672 76.7969 784.906 61.6094 777.5 48.2031C770.188 34.7969 761.938 24.3437 752.75 16.8438L758.234 0.953125C770.609 7.79688 782.375 19.2344 793.531 35.2656C804.781 51.2969 813.172 68.9688 818.703 88.2812C824.328 107.594 827.141 128.266 827.141 150.297ZM976.906 253.234H848.094V232H976.906V253.234ZM1002.36 249.578H980L1065.5 27.25H1087.72L1002.36 249.578ZM1210.62 48.9062H1116.12V28.7969H1210.62V48.9062Z" fill="black"/>
</svg>
