<svg width="173" height="45" viewBox="0 0 173 45" fill="none" xmlns="http://www.w3.org/2000/svg">
<path d="M36.7705 40.6934H32.2051V9.00391H22V5H46.9512V9.00391H36.7705V40.6934Z" fill="black"/>
<path d="M50.7354 40.6934H46.1699V9.00391H35.9648V5H60.916V9.00391H50.7354V40.6934Z" fill="black"/>
<path d="M65.2 25.65C66.3 26.25 68 27.3 69.85 27.3C71.65 27.3 72.95 26.55 74.65 25.65C75.3 25.25 76.4 24.45 78.15 24.45C79.9 24.45 81.05 25.25 81.7 25.65C83.4 26.55 84.7 27.3 86.55 27.3C88.4 27.3 90.05 26.3 91.2 25.65C92.6 24.9 93.7 24.45 94.85 24.45C96 24.45 97.1 24.9 98.5 25.65C99.65 26.25 101.3 27.3 103.15 27.3C105 27.3 106.3 26.55 107.95 25.65C108.6 25.25 109.75 24.45 111.5 24.45V21.55C109.35 21.55 108.1 22.55 106.9 23.2C105.5 23.95 104.35 24.4 103.15 24.4C101.95 24.4 100.2 23.6 99.5 23.2C98.25 22.45 96.65 21.55 94.85 21.55C93.05 21.55 91.45 22.45 90.2 23.2C89.5 23.6 87.75 24.4 86.55 24.4C85.35 24.4 84.2 23.95 82.8 23.2C81.55 22.55 80.35 21.55 78.15 21.55C76 21.55 74.75 22.55 73.6 23.2C72.2 23.95 71.05 24.4 69.85 24.4C68.6 24.4 66.9 23.6 66.2 23.2C64.9 22.45 63.3 21.55 61.5 21.55V24.45C62.7 24.45 63.8 24.9 65.2 25.65Z" fill="black"/>
<path d="M126.771 40.6934H122.205V9.00391H112V5H136.951V9.00391H126.771V40.6934Z" fill="black"/>
<path d="M140.735 40.6934H136.17V9.00391H125.965V5H150.916V9.00391H140.735V40.6934Z" fill="black"/>
<path d="M172.572 22.9971C172.572 25.0153 172.426 27.001 172.133 28.9541C171.84 30.9072 171.384 32.8034 170.766 34.6426C170.163 36.4655 169.398 38.2152 168.471 39.8916C167.559 41.568 166.469 43.1387 165.199 44.6035H161.049C162.172 43.0736 163.165 41.446 164.027 39.7207C164.89 37.9954 165.614 36.2132 166.2 34.374C166.786 32.5348 167.226 30.6549 167.519 28.7344C167.812 26.8138 167.958 24.8851 167.958 22.9482C167.958 18.9769 167.372 15.1113 166.2 11.3516C165.028 7.5918 163.295 4.14128 161 1H165.199C166.469 2.51367 167.559 4.13314 168.471 5.8584C169.398 7.56738 170.163 9.35775 170.766 11.2295C171.384 13.085 171.84 15.0055 172.133 16.9912C172.426 18.9606 172.572 20.9626 172.572 22.9971Z" fill="black"/>
<path d="M0.482422 22.3037C0.482422 20.2692 0.628906 18.2673 0.921875 16.2979C1.21484 14.3122 1.66243 12.3916 2.26465 10.5361C2.86686 8.66439 3.6237 6.87402 4.53516 5.16504C5.46289 3.43978 6.56152 1.82031 7.83105 0.306641H12.0303C9.75163 3.44792 8.01823 6.89844 6.83008 10.6582C5.6582 14.418 5.07227 18.2835 5.07227 22.2549C5.07227 24.1917 5.21875 26.1204 5.51172 28.041C5.82096 29.9616 6.26042 31.8415 6.83008 33.6807C7.41602 35.5199 8.1403 37.3021 9.00293 39.0273C9.86556 40.7526 10.8584 42.3802 11.9814 43.9102H7.83105C6.56152 42.4453 5.46289 40.8747 4.53516 39.1982C3.6237 37.5218 2.86686 35.7721 2.26465 33.9492C1.66243 32.11 1.21484 30.2139 0.921875 28.2607C0.628906 26.3076 0.482422 24.3219 0.482422 22.3037Z" fill="black"/>
</svg>

